<?xml version="1.0" standalone="no"?>
<!DOCTYPE svg PUBLIC "-//W3C//DTD SVG 20010904//EN"
 "http://www.w3.org/TR/2001/REC-SVG-20010904/DTD/svg10.dtd">
<svg version="1.0" xmlns="http://www.w3.org/2000/svg"
 width="1280.000000pt" height="789.000000pt" viewBox="0 0 1280.000000 789.000000"
 preserveAspectRatio="xMidYMid meet">

<g transform="translate(0.000000,789.000000) scale(0.100000,-0.100000)"
fill="#FE3B59" stroke="none">
<path d="M8665 7568 c-3 -7 -4 -1115 -3 -2463 l3 -2450 425 0 425 0 3 233 c1
127 5 232 8 232 3 0 52 -46 108 -103 210 -213 421 -333 711 -406 299 -74 658
-59 957 40 355 118 667 361 890 694 143 213 249 488 300 775 17 101 18 544 0
665 -40 273 -158 589 -300 800 -272 405 -653 659 -1120 747 -99 19 -152 22
-342 22 -255 0 -335 -12 -542 -83 -223 -75 -364 -164 -543 -342 -61 -60 -114
-109 -118 -109 -4 0 -7 396 -7 880 l0 880 -425 0 c-331 0 -427 -3 -430 -12z
m2119 -2002 c98 -19 152 -38 262 -91 153 -74 264 -171 376 -329 200 -281 254
-722 133 -1084 -78 -232 -226 -433 -402 -545 -146 -93 -289 -140 -474 -158
-365 -34 -702 111 -909 391 -159 215 -224 425 -224 720 0 224 41 400 135 580
136 262 395 459 675 514 94 19 333 20 428 2z"/>
<path d="M2060 6350 c-482 -63 -883 -295 -1177 -681 -51 -68 -133 -200 -173
-278 -92 -184 -173 -476 -195 -709 -19 -195 -19 -276 0 -455 86 -824 640
-1470 1391 -1626 404 -83 828 -24 1151 161 123 71 191 124 321 252 61 61 112
104 113 96 0 -8 2 -28 3 -45 1 -16 3 -117 4 -222 l2 -193 425 0 425 0 -2 1813
-3 1812 -420 -4 c-231 -2 -422 -6 -425 -8 -3 -3 -5 -106 -5 -229 0 -123 -1
-224 -2 -224 0 0 -52 51 -115 114 -211 212 -461 345 -766 407 -110 22 -441 34
-552 19z m580 -785 c129 -25 263 -78 364 -146 78 -52 205 -176 261 -254 192
-268 256 -695 160 -1060 -74 -281 -293 -544 -550 -660 -405 -183 -934 -80
-1198 233 -198 235 -277 461 -277 794 0 205 38 395 107 533 48 96 137 219 217
300 123 124 298 218 476 256 108 22 334 25 440 4z"/>
<path d="M6510 6351 c-306 -33 -627 -144 -875 -303 -296 -190 -549 -502 -683
-843 -90 -227 -136 -478 -136 -735 1 -379 91 -722 266 -1008 188 -307 450
-544 770 -697 144 -69 257 -108 416 -144 180 -41 301 -53 507 -53 473 2 847
133 1190 417 81 67 265 262 265 280 0 6 -79 83 -177 170 -97 88 -217 198 -267
243 -138 127 -128 124 -179 66 -268 -310 -627 -439 -1037 -372 -419 67 -741
383 -836 818 -25 115 -25 438 0 550 70 313 258 578 507 714 91 49 211 94 303
111 99 19 316 19 421 1 247 -44 494 -193 657 -395 l36 -45 223 215 c123 118
253 242 288 275 l65 62 -43 56 c-24 31 -85 95 -135 143 -241 231 -564 386
-944 453 -130 24 -467 35 -602 21z"/>
<path d="M3898 1832 c-263 -266 -328 -335 -328 -349 0 -5 41 -43 91 -84 51
-41 122 -99 158 -130 89 -75 232 -179 371 -270 665 -436 1407 -687 2189 -740
231 -16 653 -6 841 20 474 66 821 158 1223 328 334 140 742 378 1006 586 170
134 341 282 341 295 0 7 -125 141 -277 297 -234 240 -279 282 -292 272 -9 -6
-43 -34 -76 -62 -573 -488 -1292 -807 -2025 -899 -302 -38 -713 -29 -1023 24
-703 119 -1306 400 -1873 873 l-92 76 -234 -237z"/>
</g>
</svg>
